<mxfile host="app.diagrams.net" modified="2023-09-02T19:17:31.725Z" agent="Mozilla/5.0 (Windows NT 10.0; Win64; x64) AppleWebKit/537.36 (KHTML, like Gecko) Chrome/116.0.0.0 Safari/537.36" etag="16ICjipGO3O5eHW38HbR" version="21.7.2" type="device">
  <diagram id="C5RBs43oDa-KdzZeNtuy" name="Page-1">
    <mxGraphModel dx="2461" dy="882" grid="1" gridSize="10" guides="1" tooltips="1" connect="1" arrows="1" fold="1" page="1" pageScale="1" pageWidth="827" pageHeight="1169" math="0" shadow="0">
      <root>
        <mxCell id="WIyWlLk6GJQsqaUBKTNV-0" />
        <mxCell id="WIyWlLk6GJQsqaUBKTNV-1" parent="WIyWlLk6GJQsqaUBKTNV-0" />
        <mxCell id="zkfFHV4jXpPFQw0GAbJ--0" value="SystemOnline" style="swimlane;fontStyle=2;align=center;verticalAlign=top;childLayout=stackLayout;horizontal=1;startSize=26;horizontalStack=0;resizeParent=1;resizeLast=0;collapsible=1;marginBottom=0;rounded=0;shadow=0;strokeWidth=1;" parent="WIyWlLk6GJQsqaUBKTNV-1" vertex="1">
          <mxGeometry x="231" y="160" width="260" height="410" as="geometry">
            <mxRectangle x="230" y="140" width="160" height="26" as="alternateBounds" />
          </mxGeometry>
        </mxCell>
        <mxCell id="zkfFHV4jXpPFQw0GAbJ--1" value="Stock shopStock" style="text;align=left;verticalAlign=top;spacingLeft=4;spacingRight=4;overflow=hidden;rotatable=0;points=[[0,0.5],[1,0.5]];portConstraint=eastwest;" parent="zkfFHV4jXpPFQw0GAbJ--0" vertex="1">
          <mxGeometry y="26" width="260" height="26" as="geometry" />
        </mxCell>
        <mxCell id="zkfFHV4jXpPFQw0GAbJ--2" value="Cart consumerCart" style="text;align=left;verticalAlign=top;spacingLeft=4;spacingRight=4;overflow=hidden;rotatable=0;points=[[0,0.5],[1,0.5]];portConstraint=eastwest;rounded=0;shadow=0;html=0;" parent="zkfFHV4jXpPFQw0GAbJ--0" vertex="1">
          <mxGeometry y="52" width="260" height="26" as="geometry" />
        </mxCell>
        <mxCell id="DgZAJLvyH6UrMSrPzg4W-19" value="" style="line;html=1;strokeWidth=1;align=left;verticalAlign=middle;spacingTop=-1;spacingLeft=3;spacingRight=3;rotatable=0;labelPosition=right;points=[];portConstraint=eastwest;" parent="zkfFHV4jXpPFQw0GAbJ--0" vertex="1">
          <mxGeometry y="78" width="260" height="8" as="geometry" />
        </mxCell>
        <mxCell id="zkfFHV4jXpPFQw0GAbJ--5" value="+ SystemOnline(Stock,Cart)&#xa;+ Product locateProductById(int id)&#xa;+ void sortStockarr()&#xa;+void sortCartarr&#xa;+ Stock getShopStock()&#xa;+ void setShopStock()&#xa;+ Cart getConsumerCart()&#xa;+ void setConsumerCart()&#xa;+ void presentStock()&#xa;+ Product[]sortarr(Product[])&#xa;+ void presentStockWithoutProductInCart()&#xa;+ boolean presentConsumerCart()&#xa;+ boolean updateProductById(String,int,int)&#xa;+boolean checkingEmptyCart()&#xa;+void totoString()&#xa;+ void SortByQuantity(Product[])&#xa;+ void SortByCatagory(Product[])&#xa;+ void SortByName(Product[])&#xa;+ booleanÂ removeProductById(int)&#xa;+ void reverse(int,int)" style="text;align=left;verticalAlign=top;spacingLeft=4;spacingRight=4;overflow=hidden;rotatable=0;points=[[0,0.5],[1,0.5]];portConstraint=eastwest;" parent="zkfFHV4jXpPFQw0GAbJ--0" vertex="1">
          <mxGeometry y="86" width="260" height="324" as="geometry" />
        </mxCell>
        <mxCell id="zkfFHV4jXpPFQw0GAbJ--6" value="cart" style="swimlane;fontStyle=0;align=center;verticalAlign=top;childLayout=stackLayout;horizontal=1;startSize=26;horizontalStack=0;resizeParent=1;resizeLast=0;collapsible=1;marginBottom=0;rounded=0;shadow=0;strokeWidth=1;" parent="WIyWlLk6GJQsqaUBKTNV-1" vertex="1">
          <mxGeometry x="-100" y="470" width="230" height="180" as="geometry">
            <mxRectangle x="130" y="380" width="160" height="26" as="alternateBounds" />
          </mxGeometry>
        </mxCell>
        <mxCell id="DgZAJLvyH6UrMSrPzg4W-10" value="-product []coustomerProduct" style="text;align=left;verticalAlign=top;spacingLeft=4;spacingRight=4;overflow=hidden;rotatable=0;points=[[0,0.5],[1,0.5]];portConstraint=eastwest;" parent="zkfFHV4jXpPFQw0GAbJ--6" vertex="1">
          <mxGeometry y="26" width="230" height="26" as="geometry" />
        </mxCell>
        <mxCell id="_E8Un2Hzs_-tkI-NMffj-23" value="" style="line;html=1;strokeWidth=1;align=left;verticalAlign=middle;spacingTop=-1;spacingLeft=3;spacingRight=3;rotatable=0;labelPosition=right;points=[];portConstraint=eastwest;" parent="zkfFHV4jXpPFQw0GAbJ--6" vertex="1">
          <mxGeometry y="52" width="230" height="8" as="geometry" />
        </mxCell>
        <mxCell id="DgZAJLvyH6UrMSrPzg4W-9" value="+cart(Product[])&lt;br&gt;+ Product[] getCoustemerProduct()&lt;br&gt;+void setCoustemerProduct(Product[])&lt;br&gt;+ string tostring()" style="text;html=1;align=left;verticalAlign=middle;resizable=0;points=[];autosize=1;strokeColor=none;fillColor=none;" parent="zkfFHV4jXpPFQw0GAbJ--6" vertex="1">
          <mxGeometry y="60" width="230" height="70" as="geometry" />
        </mxCell>
        <mxCell id="zkfFHV4jXpPFQw0GAbJ--13" value="product(abstract)" style="swimlane;fontStyle=0;align=center;verticalAlign=top;childLayout=stackLayout;horizontal=1;startSize=26;horizontalStack=0;resizeParent=1;resizeLast=0;collapsible=1;marginBottom=0;rounded=0;shadow=0;strokeWidth=1;" parent="WIyWlLk6GJQsqaUBKTNV-1" vertex="1">
          <mxGeometry x="200" y="630" width="210" height="280" as="geometry">
            <mxRectangle x="340" y="380" width="170" height="26" as="alternateBounds" />
          </mxGeometry>
        </mxCell>
        <mxCell id="zkfFHV4jXpPFQw0GAbJ--14" value="-int :id&#xa;-String: productName&#xa;-int :quantity&#xa;-String parm1&#xa;-String parm 2&#xa;-THE_CATEGORY category&#xa;-private LocalDateTime:timeStamp&#xa;" style="text;align=left;verticalAlign=top;spacingLeft=4;spacingRight=4;overflow=hidden;rotatable=0;points=[[0,0.5],[1,0.5]];portConstraint=eastwest;" parent="zkfFHV4jXpPFQw0GAbJ--13" vertex="1">
          <mxGeometry y="26" width="210" height="114" as="geometry" />
        </mxCell>
        <mxCell id="zkfFHV4jXpPFQw0GAbJ--15" value="" style="line;html=1;strokeWidth=1;align=left;verticalAlign=middle;spacingTop=-1;spacingLeft=3;spacingRight=3;rotatable=0;labelPosition=right;points=[];portConstraint=eastwest;" parent="zkfFHV4jXpPFQw0GAbJ--13" vertex="1">
          <mxGeometry y="140" width="210" height="8" as="geometry" />
        </mxCell>
        <mxCell id="DgZAJLvyH6UrMSrPzg4W-7" value="+int :getId()&lt;br&gt;+ LocalDateTime :getTimeStamp()&lt;br&gt;+String :getProductName()&lt;br&gt;+String :getParm1()&lt;br&gt;+String :getParm2()&lt;br&gt;+THE_CATAGORY :getCatagory()&lt;br&gt;+ string :tostring()" style="text;html=1;align=left;verticalAlign=middle;resizable=0;points=[];autosize=1;strokeColor=none;fillColor=none;" parent="zkfFHV4jXpPFQw0GAbJ--13" vertex="1">
          <mxGeometry y="148" width="210" height="110" as="geometry" />
        </mxCell>
        <mxCell id="zkfFHV4jXpPFQw0GAbJ--17" value="Stock" style="swimlane;fontStyle=0;align=center;verticalAlign=top;childLayout=stackLayout;horizontal=1;startSize=26;horizontalStack=0;resizeParent=1;resizeLast=0;collapsible=1;marginBottom=0;rounded=0;shadow=0;strokeWidth=1;" parent="WIyWlLk6GJQsqaUBKTNV-1" vertex="1">
          <mxGeometry x="569" y="470" width="200" height="160" as="geometry">
            <mxRectangle x="550" y="140" width="160" height="26" as="alternateBounds" />
          </mxGeometry>
        </mxCell>
        <mxCell id="zkfFHV4jXpPFQw0GAbJ--18" value="-product []stockProducts" style="text;align=left;verticalAlign=top;spacingLeft=4;spacingRight=4;overflow=hidden;rotatable=0;points=[[0,0.5],[1,0.5]];portConstraint=eastwest;" parent="zkfFHV4jXpPFQw0GAbJ--17" vertex="1">
          <mxGeometry y="26" width="200" height="26" as="geometry" />
        </mxCell>
        <mxCell id="zkfFHV4jXpPFQw0GAbJ--23" value="" style="line;html=1;strokeWidth=1;align=left;verticalAlign=middle;spacingTop=-1;spacingLeft=3;spacingRight=3;rotatable=0;labelPosition=right;points=[];portConstraint=eastwest;" parent="zkfFHV4jXpPFQw0GAbJ--17" vertex="1">
          <mxGeometry y="52" width="200" height="8" as="geometry" />
        </mxCell>
        <mxCell id="DgZAJLvyH6UrMSrPzg4W-8" value="+Product(Product[])&lt;br&gt;+Product[]getStockProduct()&lt;br&gt;+void[]setStockProduct(Product[])&lt;br&gt;+ string tostring()" style="text;html=1;align=left;verticalAlign=middle;resizable=0;points=[];autosize=1;strokeColor=none;fillColor=none;" parent="zkfFHV4jXpPFQw0GAbJ--17" vertex="1">
          <mxGeometry y="60" width="200" height="70" as="geometry" />
        </mxCell>
        <mxCell id="DgZAJLvyH6UrMSrPzg4W-0" style="edgeStyle=orthogonalEdgeStyle;rounded=0;orthogonalLoop=1;jettySize=auto;html=1;exitX=0.75;exitY=0;exitDx=0;exitDy=0;entryX=0.838;entryY=0.02;entryDx=0;entryDy=0;entryPerimeter=0;" parent="WIyWlLk6GJQsqaUBKTNV-1" source="zkfFHV4jXpPFQw0GAbJ--0" target="zkfFHV4jXpPFQw0GAbJ--0" edge="1">
          <mxGeometry relative="1" as="geometry" />
        </mxCell>
        <mxCell id="DgZAJLvyH6UrMSrPzg4W-24" value="1" style="text;html=1;align=center;verticalAlign=middle;resizable=0;points=[];autosize=1;strokeColor=none;fillColor=none;" parent="WIyWlLk6GJQsqaUBKTNV-1" vertex="1">
          <mxGeometry x="140" y="510" width="30" height="30" as="geometry" />
        </mxCell>
        <mxCell id="DgZAJLvyH6UrMSrPzg4W-25" value="1" style="text;html=1;align=center;verticalAlign=middle;resizable=0;points=[];autosize=1;strokeColor=none;fillColor=none;" parent="WIyWlLk6GJQsqaUBKTNV-1" vertex="1">
          <mxGeometry x="660" y="630" width="30" height="30" as="geometry" />
        </mxCell>
        <mxCell id="DgZAJLvyH6UrMSrPzg4W-28" value="" style="endArrow=diamondThin;endFill=1;endSize=24;html=1;rounded=0;entryX=0.999;entryY=0.898;entryDx=0;entryDy=0;entryPerimeter=0;" parent="WIyWlLk6GJQsqaUBKTNV-1" target="zkfFHV4jXpPFQw0GAbJ--14" edge="1">
          <mxGeometry width="160" relative="1" as="geometry">
            <mxPoint x="661.89" y="630" as="sourcePoint" />
            <mxPoint x="410.0000000000001" y="750.7339999999997" as="targetPoint" />
            <Array as="points">
              <mxPoint x="661.89" y="760" />
            </Array>
          </mxGeometry>
        </mxCell>
        <mxCell id="DgZAJLvyH6UrMSrPzg4W-32" value="n" style="text;html=1;align=center;verticalAlign=middle;resizable=0;points=[];autosize=1;strokeColor=none;fillColor=none;" parent="WIyWlLk6GJQsqaUBKTNV-1" vertex="1">
          <mxGeometry x="426" y="710" width="30" height="30" as="geometry" />
        </mxCell>
        <mxCell id="DgZAJLvyH6UrMSrPzg4W-33" value="1" style="text;html=1;align=center;verticalAlign=middle;resizable=0;points=[];autosize=1;strokeColor=none;fillColor=none;" parent="WIyWlLk6GJQsqaUBKTNV-1" vertex="1">
          <mxGeometry y="650" width="30" height="30" as="geometry" />
        </mxCell>
        <mxCell id="DgZAJLvyH6UrMSrPzg4W-35" value="1" style="text;html=1;align=center;verticalAlign=middle;resizable=0;points=[];autosize=1;strokeColor=none;fillColor=none;" parent="WIyWlLk6GJQsqaUBKTNV-1" vertex="1">
          <mxGeometry x="540" y="518" width="30" height="30" as="geometry" />
        </mxCell>
        <mxCell id="DgZAJLvyH6UrMSrPzg4W-36" value="" style="endArrow=open;shadow=0;strokeWidth=1;rounded=0;endFill=1;edgeStyle=elbowEdgeStyle;elbow=vertical;entryX=0.007;entryY=0.114;entryDx=0;entryDy=0;entryPerimeter=0;exitX=1;exitY=0.483;exitDx=0;exitDy=0;exitPerimeter=0;" parent="WIyWlLk6GJQsqaUBKTNV-1" target="DgZAJLvyH6UrMSrPzg4W-8" edge="1">
          <mxGeometry x="0.5" y="41" relative="1" as="geometry">
            <mxPoint x="130" y="550.0140000000001" as="sourcePoint" />
            <mxPoint x="560" y="560" as="targetPoint" />
            <mxPoint x="-40" y="32" as="offset" />
            <Array as="points" />
          </mxGeometry>
        </mxCell>
        <mxCell id="_E8Un2Hzs_-tkI-NMffj-3" value="Books" style="swimlane;fontStyle=0;align=center;verticalAlign=top;childLayout=stackLayout;horizontal=1;startSize=26;horizontalStack=0;resizeParent=1;resizeLast=0;collapsible=1;marginBottom=0;rounded=0;shadow=0;strokeWidth=1;" parent="WIyWlLk6GJQsqaUBKTNV-1" vertex="1">
          <mxGeometry x="-10" y="1110" width="190" height="170" as="geometry">
            <mxRectangle x="340" y="380" width="170" height="26" as="alternateBounds" />
          </mxGeometry>
        </mxCell>
        <mxCell id="_E8Un2Hzs_-tkI-NMffj-5" value="" style="line;html=1;strokeWidth=1;align=left;verticalAlign=middle;spacingTop=-1;spacingLeft=3;spacingRight=3;rotatable=0;labelPosition=right;points=[];portConstraint=eastwest;" parent="_E8Un2Hzs_-tkI-NMffj-3" vertex="1">
          <mxGeometry y="26" width="190" height="8" as="geometry" />
        </mxCell>
        <mxCell id="_E8Un2Hzs_-tkI-NMffj-6" value="+Books(int,THE_CATAGORY,&lt;br&gt;String,int,String,String)&lt;br&gt;+ string tostring()" style="text;html=1;align=left;verticalAlign=middle;resizable=0;points=[];autosize=1;strokeColor=none;fillColor=none;" parent="_E8Un2Hzs_-tkI-NMffj-3" vertex="1">
          <mxGeometry y="34" width="190" height="60" as="geometry" />
        </mxCell>
        <mxCell id="_E8Un2Hzs_-tkI-NMffj-7" value="Clothing" style="swimlane;fontStyle=0;align=center;verticalAlign=top;childLayout=stackLayout;horizontal=1;startSize=26;horizontalStack=0;resizeParent=1;resizeLast=0;collapsible=1;marginBottom=0;rounded=0;shadow=0;strokeWidth=1;" parent="WIyWlLk6GJQsqaUBKTNV-1" vertex="1">
          <mxGeometry x="220" y="1111" width="190" height="169" as="geometry">
            <mxRectangle x="340" y="380" width="170" height="26" as="alternateBounds" />
          </mxGeometry>
        </mxCell>
        <mxCell id="_E8Un2Hzs_-tkI-NMffj-8" value="&#xa;-THE_SIZE:size" style="text;align=left;verticalAlign=top;spacingLeft=4;spacingRight=4;overflow=hidden;rotatable=0;points=[[0,0.5],[1,0.5]];portConstraint=eastwest;" parent="_E8Un2Hzs_-tkI-NMffj-7" vertex="1">
          <mxGeometry y="26" width="190" height="64" as="geometry" />
        </mxCell>
        <mxCell id="_E8Un2Hzs_-tkI-NMffj-9" value="" style="line;html=1;strokeWidth=1;align=left;verticalAlign=middle;spacingTop=-1;spacingLeft=3;spacingRight=3;rotatable=0;labelPosition=right;points=[];portConstraint=eastwest;" parent="_E8Un2Hzs_-tkI-NMffj-7" vertex="1">
          <mxGeometry y="90" width="190" height="8" as="geometry" />
        </mxCell>
        <mxCell id="_E8Un2Hzs_-tkI-NMffj-10" value="+Clothing(int,THE_CATAGORY&lt;br&gt;,String,int,String,String,&lt;br&gt;THE_SIZE)&lt;br&gt;+ string tostring()" style="text;html=1;align=left;verticalAlign=middle;resizable=0;points=[];autosize=1;strokeColor=none;fillColor=none;" parent="_E8Un2Hzs_-tkI-NMffj-7" vertex="1">
          <mxGeometry y="98" width="190" height="70" as="geometry" />
        </mxCell>
        <mxCell id="_E8Un2Hzs_-tkI-NMffj-11" value="Electronics" style="swimlane;fontStyle=0;align=center;verticalAlign=top;childLayout=stackLayout;horizontal=1;startSize=26;horizontalStack=0;resizeParent=1;resizeLast=0;collapsible=1;marginBottom=0;rounded=0;shadow=0;strokeWidth=1;" parent="WIyWlLk6GJQsqaUBKTNV-1" vertex="1">
          <mxGeometry x="426" y="1110" width="240" height="170" as="geometry">
            <mxRectangle x="340" y="380" width="170" height="26" as="alternateBounds" />
          </mxGeometry>
        </mxCell>
        <mxCell id="_E8Un2Hzs_-tkI-NMffj-13" value="" style="line;html=1;strokeWidth=1;align=left;verticalAlign=middle;spacingTop=-1;spacingLeft=3;spacingRight=3;rotatable=0;labelPosition=right;points=[];portConstraint=eastwest;" parent="_E8Un2Hzs_-tkI-NMffj-11" vertex="1">
          <mxGeometry y="26" width="240" height="8" as="geometry" />
        </mxCell>
        <mxCell id="_E8Un2Hzs_-tkI-NMffj-14" value="+Electronics(int,THE_CATAGORY,String&lt;br style=&quot;border-color: var(--border-color); padding: 0px; margin: 0px;&quot;&gt;,int,String,String)&lt;br&gt;+ string tostring()" style="text;html=1;align=left;verticalAlign=middle;resizable=0;points=[];autosize=1;strokeColor=none;fillColor=none;" parent="_E8Un2Hzs_-tkI-NMffj-11" vertex="1">
          <mxGeometry y="34" width="240" height="60" as="geometry" />
        </mxCell>
        <mxCell id="_E8Un2Hzs_-tkI-NMffj-16" value="" style="strokeWidth=2;html=1;shape=mxgraph.flowchart.annotation_2;align=left;labelPosition=right;pointerEvents=1;rotation=90;" parent="WIyWlLk6GJQsqaUBKTNV-1" vertex="1">
          <mxGeometry x="270" y="870" width="50" height="430" as="geometry" />
        </mxCell>
        <mxCell id="_E8Un2Hzs_-tkI-NMffj-18" value="Extends" style="endArrow=block;endSize=16;endFill=0;html=1;rounded=0;" parent="WIyWlLk6GJQsqaUBKTNV-1" edge="1">
          <mxGeometry x="0.0909" width="160" relative="1" as="geometry">
            <mxPoint x="295.08000000000004" y="1110" as="sourcePoint" />
            <mxPoint x="295" y="910" as="targetPoint" />
            <Array as="points">
              <mxPoint x="295.08000000000004" y="1050" />
            </Array>
            <mxPoint as="offset" />
          </mxGeometry>
        </mxCell>
        <mxCell id="_E8Un2Hzs_-tkI-NMffj-19" value="" style="endArrow=diamondThin;endFill=0;endSize=24;html=1;rounded=0;exitX=-0.112;exitY=0.098;exitDx=0;exitDy=0;entryX=0.009;entryY=0.898;entryDx=0;entryDy=0;entryPerimeter=0;exitPerimeter=0;" parent="WIyWlLk6GJQsqaUBKTNV-1" source="DgZAJLvyH6UrMSrPzg4W-33" target="zkfFHV4jXpPFQw0GAbJ--14" edge="1">
          <mxGeometry width="160" relative="1" as="geometry">
            <mxPoint x="50" y="740" as="sourcePoint" />
            <mxPoint x="210" y="740" as="targetPoint" />
            <Array as="points">
              <mxPoint y="760" />
              <mxPoint x="140" y="760" />
            </Array>
          </mxGeometry>
        </mxCell>
        <mxCell id="_E8Un2Hzs_-tkI-NMffj-21" value="" style="endArrow=diamondThin;endFill=1;endSize=24;html=1;rounded=0;entryX=0.449;entryY=-0.019;entryDx=0;entryDy=0;exitX=0.006;exitY=1.128;exitDx=0;exitDy=0;exitPerimeter=0;entryPerimeter=0;" parent="WIyWlLk6GJQsqaUBKTNV-1" source="zkfFHV4jXpPFQw0GAbJ--2" target="zkfFHV4jXpPFQw0GAbJ--6" edge="1">
          <mxGeometry width="160" relative="1" as="geometry">
            <mxPoint y="240" as="sourcePoint" />
            <mxPoint x="120" y="350" as="targetPoint" />
            <Array as="points">
              <mxPoint y="240" />
            </Array>
          </mxGeometry>
        </mxCell>
        <mxCell id="_E8Un2Hzs_-tkI-NMffj-22" value="" style="endArrow=diamondThin;endFill=1;endSize=24;html=1;rounded=0;entryX=0.546;entryY=-0.016;entryDx=0;entryDy=0;entryPerimeter=0;exitX=1;exitY=1.149;exitDx=0;exitDy=0;exitPerimeter=0;" parent="WIyWlLk6GJQsqaUBKTNV-1" source="zkfFHV4jXpPFQw0GAbJ--2" edge="1">
          <mxGeometry width="160" relative="1" as="geometry">
            <mxPoint x="872" y="244" as="sourcePoint" />
            <mxPoint x="644" y="470" as="targetPoint" />
            <Array as="points">
              <mxPoint x="640" y="243" />
            </Array>
          </mxGeometry>
        </mxCell>
        <mxCell id="_E8Un2Hzs_-tkI-NMffj-24" value="n" style="text;html=1;align=center;verticalAlign=middle;resizable=0;points=[];autosize=1;strokeColor=none;fillColor=none;" parent="WIyWlLk6GJQsqaUBKTNV-1" vertex="1">
          <mxGeometry x="170" y="720" width="30" height="30" as="geometry" />
        </mxCell>
        <mxCell id="lkKk6ACUtmsMTTeI6Ok--0" value="Exception" style="swimlane;fontStyle=1;align=center;verticalAlign=top;childLayout=stackLayout;horizontal=1;startSize=20;horizontalStack=0;resizeParent=1;resizeParentMax=0;resizeLast=0;collapsible=1;marginBottom=0;whiteSpace=wrap;html=1;" vertex="1" parent="WIyWlLk6GJQsqaUBKTNV-1">
          <mxGeometry x="-520" y="90" width="160" height="70" as="geometry" />
        </mxCell>
        <mxCell id="lkKk6ACUtmsMTTeI6Ok--2" value="" style="line;strokeWidth=1;fillColor=none;align=left;verticalAlign=middle;spacingTop=-1;spacingLeft=3;spacingRight=3;rotatable=0;labelPosition=right;points=[];portConstraint=eastwest;strokeColor=inherit;" vertex="1" parent="lkKk6ACUtmsMTTeI6Ok--0">
          <mxGeometry y="20" width="160" height="50" as="geometry" />
        </mxCell>
        <mxCell id="lkKk6ACUtmsMTTeI6Ok--34" style="edgeStyle=orthogonalEdgeStyle;rounded=0;orthogonalLoop=1;jettySize=auto;html=1;" edge="1" parent="WIyWlLk6GJQsqaUBKTNV-1" target="lkKk6ACUtmsMTTeI6Ok--2">
          <mxGeometry relative="1" as="geometry">
            <mxPoint x="-460.0000000000002" y="170" as="targetPoint" />
            <mxPoint x="-310" y="360" as="sourcePoint" />
            <Array as="points">
              <mxPoint x="-300" y="360" />
              <mxPoint x="-300" y="230" />
              <mxPoint x="-460" y="230" />
            </Array>
          </mxGeometry>
        </mxCell>
        <mxCell id="lkKk6ACUtmsMTTeI6Ok--6" value="OnlineStoreGeneralException" style="swimlane;fontStyle=1;align=center;verticalAlign=top;childLayout=stackLayout;horizontal=1;startSize=20;horizontalStack=0;resizeParent=1;resizeParentMax=0;resizeLast=0;collapsible=1;marginBottom=0;whiteSpace=wrap;html=1;" vertex="1" parent="WIyWlLk6GJQsqaUBKTNV-1">
          <mxGeometry x="-530" y="310" width="220" height="100" as="geometry" />
        </mxCell>
        <mxCell id="lkKk6ACUtmsMTTeI6Ok--17" value="OnlineStoreGeneralException()" style="text;html=1;align=center;verticalAlign=middle;resizable=0;points=[];autosize=1;strokeColor=none;fillColor=none;" vertex="1" parent="lkKk6ACUtmsMTTeI6Ok--6">
          <mxGeometry y="20" width="220" height="30" as="geometry" />
        </mxCell>
        <mxCell id="lkKk6ACUtmsMTTeI6Ok--7" value="" style="line;strokeWidth=1;fillColor=none;align=left;verticalAlign=middle;spacingTop=-1;spacingLeft=3;spacingRight=3;rotatable=0;labelPosition=right;points=[];portConstraint=eastwest;strokeColor=inherit;" vertex="1" parent="lkKk6ACUtmsMTTeI6Ok--6">
          <mxGeometry y="50" width="220" height="50" as="geometry" />
        </mxCell>
        <mxCell id="lkKk6ACUtmsMTTeI6Ok--37" style="edgeStyle=orthogonalEdgeStyle;rounded=0;orthogonalLoop=1;jettySize=auto;html=1;exitX=1;exitY=0.75;exitDx=0;exitDy=0;" edge="1" parent="WIyWlLk6GJQsqaUBKTNV-1">
          <mxGeometry relative="1" as="geometry">
            <mxPoint x="-490" y="160" as="targetPoint" />
            <mxPoint x="-570" y="395" as="sourcePoint" />
            <Array as="points">
              <mxPoint x="-540" y="395" />
              <mxPoint x="-540" y="200" />
              <mxPoint x="-490" y="200" />
            </Array>
          </mxGeometry>
        </mxCell>
        <mxCell id="lkKk6ACUtmsMTTeI6Ok--10" value="CartProductAlreadyExistException" style="swimlane;fontStyle=1;align=center;verticalAlign=top;childLayout=stackLayout;horizontal=1;startSize=20;horizontalStack=0;resizeParent=1;resizeParentMax=0;resizeLast=0;collapsible=1;marginBottom=0;whiteSpace=wrap;html=1;" vertex="1" parent="WIyWlLk6GJQsqaUBKTNV-1">
          <mxGeometry x="-800" y="310" width="230" height="100" as="geometry" />
        </mxCell>
        <mxCell id="lkKk6ACUtmsMTTeI6Ok--14" value="CartProductAlreadyExistException()" style="text;html=1;align=center;verticalAlign=middle;resizable=0;points=[];autosize=1;strokeColor=none;fillColor=none;" vertex="1" parent="lkKk6ACUtmsMTTeI6Ok--10">
          <mxGeometry y="20" width="230" height="30" as="geometry" />
        </mxCell>
        <mxCell id="lkKk6ACUtmsMTTeI6Ok--11" value="" style="line;strokeWidth=1;fillColor=none;align=left;verticalAlign=middle;spacingTop=-1;spacingLeft=3;spacingRight=3;rotatable=0;labelPosition=right;points=[];portConstraint=eastwest;strokeColor=inherit;" vertex="1" parent="lkKk6ACUtmsMTTeI6Ok--10">
          <mxGeometry y="50" width="230" height="50" as="geometry" />
        </mxCell>
        <mxCell id="lkKk6ACUtmsMTTeI6Ok--36" style="edgeStyle=orthogonalEdgeStyle;rounded=0;orthogonalLoop=1;jettySize=auto;html=1;exitX=1;exitY=0.75;exitDx=0;exitDy=0;entryX=0;entryY=1;entryDx=0;entryDy=0;" edge="1" parent="WIyWlLk6GJQsqaUBKTNV-1" source="lkKk6ACUtmsMTTeI6Ok--12" target="lkKk6ACUtmsMTTeI6Ok--0">
          <mxGeometry relative="1" as="geometry">
            <Array as="points">
              <mxPoint x="-550" y="522" />
              <mxPoint x="-550" y="160" />
            </Array>
          </mxGeometry>
        </mxCell>
        <mxCell id="lkKk6ACUtmsMTTeI6Ok--12" value="ReachedMaxAmountException" style="swimlane;fontStyle=1;align=center;verticalAlign=top;childLayout=stackLayout;horizontal=1;startSize=20;horizontalStack=0;resizeParent=1;resizeParentMax=0;resizeLast=0;collapsible=1;marginBottom=0;whiteSpace=wrap;html=1;" vertex="1" parent="WIyWlLk6GJQsqaUBKTNV-1">
          <mxGeometry x="-790" y="470" width="220" height="70" as="geometry" />
        </mxCell>
        <mxCell id="lkKk6ACUtmsMTTeI6Ok--13" value="" style="line;strokeWidth=1;fillColor=none;align=left;verticalAlign=middle;spacingTop=-1;spacingLeft=3;spacingRight=3;rotatable=0;labelPosition=right;points=[];portConstraint=eastwest;strokeColor=inherit;" vertex="1" parent="lkKk6ACUtmsMTTeI6Ok--12">
          <mxGeometry y="20" width="220" height="50" as="geometry" />
        </mxCell>
        <mxCell id="lkKk6ACUtmsMTTeI6Ok--35" style="edgeStyle=orthogonalEdgeStyle;rounded=0;orthogonalLoop=1;jettySize=auto;html=1;exitX=0;exitY=0.5;exitDx=0;exitDy=0;entryX=0.75;entryY=1;entryDx=0;entryDy=0;" edge="1" parent="WIyWlLk6GJQsqaUBKTNV-1" source="lkKk6ACUtmsMTTeI6Ok--20" target="lkKk6ACUtmsMTTeI6Ok--0">
          <mxGeometry relative="1" as="geometry">
            <Array as="points">
              <mxPoint x="-270" y="270" />
              <mxPoint x="-400" y="270" />
            </Array>
          </mxGeometry>
        </mxCell>
        <mxCell id="lkKk6ACUtmsMTTeI6Ok--20" value="ProductQuantityNotAvailableException" style="swimlane;fontStyle=1;align=center;verticalAlign=top;childLayout=stackLayout;horizontal=1;startSize=20;horizontalStack=0;resizeParent=1;resizeParentMax=0;resizeLast=0;collapsible=1;marginBottom=0;whiteSpace=wrap;html=1;" vertex="1" parent="WIyWlLk6GJQsqaUBKTNV-1">
          <mxGeometry x="-270" y="310" width="230" height="100" as="geometry" />
        </mxCell>
        <mxCell id="lkKk6ACUtmsMTTeI6Ok--21" value="ProductQuantityNotAvailableException()" style="text;html=1;align=center;verticalAlign=middle;resizable=0;points=[];autosize=1;strokeColor=none;fillColor=none;" vertex="1" parent="lkKk6ACUtmsMTTeI6Ok--20">
          <mxGeometry y="20" width="230" height="30" as="geometry" />
        </mxCell>
        <mxCell id="lkKk6ACUtmsMTTeI6Ok--22" value="" style="line;strokeWidth=1;fillColor=none;align=left;verticalAlign=middle;spacingTop=-1;spacingLeft=3;spacingRight=3;rotatable=0;labelPosition=right;points=[];portConstraint=eastwest;strokeColor=inherit;" vertex="1" parent="lkKk6ACUtmsMTTeI6Ok--20">
          <mxGeometry y="50" width="230" height="50" as="geometry" />
        </mxCell>
        <mxCell id="lkKk6ACUtmsMTTeI6Ok--23" value="ReachedMaxAmountException()" style="text;html=1;align=center;verticalAlign=middle;resizable=0;points=[];autosize=1;strokeColor=none;fillColor=none;" vertex="1" parent="WIyWlLk6GJQsqaUBKTNV-1">
          <mxGeometry x="-780" y="488" width="200" height="30" as="geometry" />
        </mxCell>
        <mxCell id="lkKk6ACUtmsMTTeI6Ok--38" style="edgeStyle=orthogonalEdgeStyle;rounded=0;orthogonalLoop=1;jettySize=auto;html=1;exitX=0;exitY=0.75;exitDx=0;exitDy=0;" edge="1" parent="WIyWlLk6GJQsqaUBKTNV-1" source="lkKk6ACUtmsMTTeI6Ok--24" target="lkKk6ACUtmsMTTeI6Ok--2">
          <mxGeometry relative="1" as="geometry">
            <mxPoint x="-380" y="190" as="targetPoint" />
            <Array as="points">
              <mxPoint x="-400" y="450" />
              <mxPoint x="-290" y="450" />
              <mxPoint x="-290" y="290" />
              <mxPoint x="-379" y="290" />
            </Array>
          </mxGeometry>
        </mxCell>
        <mxCell id="lkKk6ACUtmsMTTeI6Ok--24" value="CartProductNotExistException" style="swimlane;fontStyle=1;align=center;verticalAlign=top;childLayout=stackLayout;horizontal=1;startSize=20;horizontalStack=0;resizeParent=1;resizeParentMax=0;resizeLast=0;collapsible=1;marginBottom=0;whiteSpace=wrap;html=1;" vertex="1" parent="WIyWlLk6GJQsqaUBKTNV-1">
          <mxGeometry x="-400" y="470" width="220" height="100" as="geometry" />
        </mxCell>
        <mxCell id="lkKk6ACUtmsMTTeI6Ok--25" value="CartProductNotExistException()" style="text;html=1;align=center;verticalAlign=middle;resizable=0;points=[];autosize=1;strokeColor=none;fillColor=none;" vertex="1" parent="lkKk6ACUtmsMTTeI6Ok--24">
          <mxGeometry y="20" width="220" height="30" as="geometry" />
        </mxCell>
        <mxCell id="lkKk6ACUtmsMTTeI6Ok--26" value="" style="line;strokeWidth=1;fillColor=none;align=left;verticalAlign=middle;spacingTop=-1;spacingLeft=3;spacingRight=3;rotatable=0;labelPosition=right;points=[];portConstraint=eastwest;strokeColor=inherit;" vertex="1" parent="lkKk6ACUtmsMTTeI6Ok--24">
          <mxGeometry y="50" width="220" height="50" as="geometry" />
        </mxCell>
        <mxCell id="lkKk6ACUtmsMTTeI6Ok--27" value="" style="endArrow=block;dashed=1;endFill=0;endSize=12;html=1;rounded=0;" edge="1" parent="WIyWlLk6GJQsqaUBKTNV-1">
          <mxGeometry width="160" relative="1" as="geometry">
            <mxPoint x="-500" y="360" as="sourcePoint" />
            <mxPoint x="-340" y="360" as="targetPoint" />
          </mxGeometry>
        </mxCell>
        <mxCell id="lkKk6ACUtmsMTTeI6Ok--28" value="throws" style="endArrow=open;endSize=12;dashed=1;html=1;rounded=0;entryX=1.015;entryY=0.443;entryDx=0;entryDy=0;entryPerimeter=0;" edge="1" parent="WIyWlLk6GJQsqaUBKTNV-1" target="lkKk6ACUtmsMTTeI6Ok--21">
          <mxGeometry width="160" relative="1" as="geometry">
            <mxPoint x="230" y="340" as="sourcePoint" />
            <mxPoint x="100" y="340" as="targetPoint" />
          </mxGeometry>
        </mxCell>
        <mxCell id="lkKk6ACUtmsMTTeI6Ok--29" value="throws" style="endArrow=open;endSize=12;dashed=1;html=1;rounded=0;entryX=0.998;entryY=0.725;entryDx=0;entryDy=0;entryPerimeter=0;" edge="1" parent="WIyWlLk6GJQsqaUBKTNV-1" target="lkKk6ACUtmsMTTeI6Ok--17">
          <mxGeometry width="160" relative="1" as="geometry">
            <mxPoint x="230" y="430" as="sourcePoint" />
            <mxPoint x="-360" y="430" as="targetPoint" />
            <Array as="points">
              <mxPoint x="-290" y="420" />
            </Array>
          </mxGeometry>
        </mxCell>
        <mxCell id="lkKk6ACUtmsMTTeI6Ok--30" value="throws" style="endArrow=open;endSize=12;dashed=1;html=1;rounded=0;entryX=1;entryY=0.5;entryDx=0;entryDy=0;" edge="1" parent="WIyWlLk6GJQsqaUBKTNV-1" target="lkKk6ACUtmsMTTeI6Ok--10">
          <mxGeometry width="160" relative="1" as="geometry">
            <mxPoint x="230" y="440" as="sourcePoint" />
            <mxPoint x="-310" y="362" as="targetPoint" />
            <Array as="points">
              <mxPoint x="-160" y="440" />
              <mxPoint x="-550" y="420" />
            </Array>
          </mxGeometry>
        </mxCell>
        <mxCell id="lkKk6ACUtmsMTTeI6Ok--31" value="throws" style="endArrow=open;endSize=12;dashed=1;html=1;rounded=0;entryX=0.5;entryY=0;entryDx=0;entryDy=0;exitX=-0.016;exitY=0.699;exitDx=0;exitDy=0;exitPerimeter=0;" edge="1" parent="WIyWlLk6GJQsqaUBKTNV-1" source="zkfFHV4jXpPFQw0GAbJ--5" target="lkKk6ACUtmsMTTeI6Ok--24">
          <mxGeometry width="160" relative="1" as="geometry">
            <mxPoint x="220" y="450" as="sourcePoint" />
            <mxPoint x="-290" y="372" as="targetPoint" />
            <Array as="points">
              <mxPoint x="-250" y="460" />
            </Array>
          </mxGeometry>
        </mxCell>
        <mxCell id="lkKk6ACUtmsMTTeI6Ok--32" value="throws" style="endArrow=open;endSize=12;dashed=1;html=1;rounded=0;entryX=1;entryY=0.25;entryDx=0;entryDy=0;exitX=-0.012;exitY=0.745;exitDx=0;exitDy=0;exitPerimeter=0;" edge="1" parent="WIyWlLk6GJQsqaUBKTNV-1" source="zkfFHV4jXpPFQw0GAbJ--5" target="lkKk6ACUtmsMTTeI6Ok--12">
          <mxGeometry width="160" relative="1" as="geometry">
            <mxPoint x="230" y="450" as="sourcePoint" />
            <mxPoint x="-560" y="370" as="targetPoint" />
            <Array as="points">
              <mxPoint x="-150" y="450" />
              <mxPoint x="-530" y="460" />
            </Array>
          </mxGeometry>
        </mxCell>
        <mxCell id="lkKk6ACUtmsMTTeI6Ok--39" value="Reservable" style="swimlane;fontStyle=1;align=center;verticalAlign=top;childLayout=stackLayout;horizontal=1;startSize=26;horizontalStack=0;resizeParent=1;resizeParentMax=0;resizeLast=0;collapsible=1;marginBottom=0;whiteSpace=wrap;html=1;" vertex="1" parent="WIyWlLk6GJQsqaUBKTNV-1">
          <mxGeometry x="-580" y="820" width="160" height="60" as="geometry" />
        </mxCell>
        <mxCell id="lkKk6ACUtmsMTTeI6Ok--41" value="" style="line;strokeWidth=1;fillColor=none;align=left;verticalAlign=middle;spacingTop=-1;spacingLeft=3;spacingRight=3;rotatable=0;labelPosition=right;points=[];portConstraint=eastwest;strokeColor=inherit;" vertex="1" parent="lkKk6ACUtmsMTTeI6Ok--39">
          <mxGeometry y="26" width="160" height="8" as="geometry" />
        </mxCell>
        <mxCell id="lkKk6ACUtmsMTTeI6Ok--42" value="+void reserve (int,int)" style="text;strokeColor=none;fillColor=none;align=left;verticalAlign=top;spacingLeft=4;spacingRight=4;overflow=hidden;rotatable=0;points=[[0,0.5],[1,0.5]];portConstraint=eastwest;whiteSpace=wrap;html=1;" vertex="1" parent="lkKk6ACUtmsMTTeI6Ok--39">
          <mxGeometry y="34" width="160" height="26" as="geometry" />
        </mxCell>
        <mxCell id="lkKk6ACUtmsMTTeI6Ok--43" value="" style="endArrow=open;endSize=12;dashed=1;html=1;rounded=0;entryX=1;entryY=0.5;entryDx=0;entryDy=0;exitX=0.533;exitY=1.002;exitDx=0;exitDy=0;exitPerimeter=0;" edge="1" parent="WIyWlLk6GJQsqaUBKTNV-1" source="zkfFHV4jXpPFQw0GAbJ--5" target="lkKk6ACUtmsMTTeI6Ok--39">
          <mxGeometry width="160" relative="1" as="geometry">
            <mxPoint x="-140" y="840" as="sourcePoint" />
            <mxPoint x="60" y="610" as="targetPoint" />
            <Array as="points">
              <mxPoint x="170" y="630" />
              <mxPoint x="20" y="750" />
            </Array>
          </mxGeometry>
        </mxCell>
        <mxCell id="lkKk6ACUtmsMTTeI6Ok--44" value="" style="endArrow=open;endSize=12;dashed=1;html=1;rounded=0;entryX=1;entryY=0.5;entryDx=0;entryDy=0;exitX=0;exitY=0.686;exitDx=0;exitDy=0;exitPerimeter=0;" edge="1" parent="WIyWlLk6GJQsqaUBKTNV-1" source="DgZAJLvyH6UrMSrPzg4W-8">
          <mxGeometry width="160" relative="1" as="geometry">
            <mxPoint x="380" y="581" as="sourcePoint" />
            <mxPoint x="-410" y="860" as="targetPoint" />
            <Array as="points">
              <mxPoint x="180" y="640" />
              <mxPoint x="30" y="760" />
            </Array>
          </mxGeometry>
        </mxCell>
        <mxCell id="lkKk6ACUtmsMTTeI6Ok--45" value="" style="endArrow=open;endSize=12;dashed=1;html=1;rounded=0;entryX=1;entryY=0.5;entryDx=0;entryDy=0;exitX=0.25;exitY=1;exitDx=0;exitDy=0;" edge="1" parent="WIyWlLk6GJQsqaUBKTNV-1" source="zkfFHV4jXpPFQw0GAbJ--6">
          <mxGeometry width="160" relative="1" as="geometry">
            <mxPoint x="370" y="585.5" as="sourcePoint" />
            <mxPoint x="-420" y="864.5" as="targetPoint" />
            <Array as="points">
              <mxPoint x="-160" y="730" />
            </Array>
          </mxGeometry>
        </mxCell>
      </root>
    </mxGraphModel>
  </diagram>
</mxfile>
